<svg xmlns="http://www.w3.org/2000/svg" version="1.1" xmlns:xlink="http://www.w3.org/1999/xlink" xmlns:svgjs="http://svgjs.com/svgjs" width="100%" height="100%" preserveAspectRatio="none" viewBox="0 0 1920 1080"><g mask="url(&quot;#SvgjsMask1117&quot;)"
                                                                                                                                                                                                                    fill="none"><rect width="1920" height="1080" x="0" y="0" fill="rgba(51, 27, 105, 1)"></rect><path d="M-26.895421879446566 323.8778014432381L288.8004791109696 250.99365983582578 215.9163375035573-64.70224115459041-99.7795634868589 8.181900452821935z" fill="rgba(231, 121, 193, 0.32)" class="triangle-float3"></path><path d="M42.316,150.25C78.367,149.28,104.471,119.84,122.06,88.356C139.114,57.831,148.671,21.288,131.329,-9.075C113.875,-39.634,77.501,-51.95,42.316,-51.263C8.438,-50.601,-23.282,-34.672,-40.872,-5.712C-59.171,24.415,-61.81,61.755,-45.221,92.856C-27.621,125.853,4.933,151.255,42.316,150.25" fill="rgba(231, 121, 193, 0.32)" class="triangle-float2"></path><path d="M-231.43 87.42 a318.85 318.85 0 1 0 637.7 0 a318.85 318.85 0 1 0 -637.7 0z" fill="rgba(231, 121, 193, 0.32)" class="triangle-float1"></path><path d="M1972.1988177781116 305.82906455446675L2006.0660398768312-16.396029544853832 1683.8409457775106-50.263251643573426 1649.973723678791 271.96184245574716z" fill="rgba(231, 121, 193, 0.32)" class="triangle-float1"></path><path d="M1989.867,598.02C2095.782,591.451,2182.897,519.716,2231.622,425.444C2276.339,338.927,2264.528,239.625,2219.825,153.101C2170.32,57.283,2097.643,-38.451,1989.867,-42.477C1877.009,-46.693,1786.062,37.807,1728.093,134.732C1668.211,234.856,1632.526,357.471,1689.918,459.043C1748.019,561.87,1871.988,605.331,1989.867,598.02" fill="rgba(231, 121, 193, 0.32)" class="triangle-float1"></path><path d="M1761.257,174.449C1799.493,173.195,1823.861,137.538,1841.58,103.632C1857.679,72.826,1865.681,37.095,1848.962,6.621C1831.665,-24.908,1797.197,-41.516,1761.257,-42.776C1722.726,-44.127,1681.856,-33.101,1662.212,0.074C1642.277,33.742,1651.935,75.196,1671.259,109.218C1690.872,143.748,1721.567,175.751,1761.257,174.449" fill="rgba(231, 121, 193, 0.32)" class="triangle-float1"></path><path d="M81.39139732671597 718.8360565487745L-122.50840937343136 970.6313480608331 129.28688213862722 1174.5311547609804 333.18668883877456 922.7358632489219z" fill="rgba(231, 121, 193, 0.32)" class="triangle-float2"></path><path d="M-68.83115196943939 788.8859817131386L-74.48573165511925 1112.8366349438093 249.46492157555153 1118.4912146294891 255.11950126123136 794.5405613988185z" fill="rgba(231, 121, 193, 0.32)" class="triangle-float1"></path><path d="M-110.19917193761958 840.8927104782608L-31.816477763327185 1155.2685257916837 282.55933755009573 1076.8858316173914 204.1766433758033 762.5100163039684z" fill="rgba(231, 121, 193, 0.32)" class="triangle-float3"></path><path d="M1735.928712886674 1135.1354016665969L2035.9924313572576 917.5629657800482 1742.348708357383 780.6346489760616z" fill="rgba(231, 121, 193, 0.32)" class="triangle-float1"></path><path d="M1468.42 955.57 a327.15 327.15 0 1 0 654.3 0 a327.15 327.15 0 1 0 -654.3 0z" fill="rgba(231, 121, 193, 0.32)" class="triangle-float1"></path><path d="M1585.17 838.84 a93.67 93.67 0 1 0 187.34 0 a93.67 93.67 0 1 0 -187.34 0z" fill="rgba(231, 121, 193, 0.32)" class="triangle-float3"></path></g><defs><mask id="SvgjsMask1117"><rect width="1920" height="1080" fill="#ffffff"></rect></mask><style>
    @keyframes float1 {
    0%{transform: translate(0, 0)}
    50%{transform: translate(-10px, 0)}
    100%{transform: translate(0, 0)}
    }

    .triangle-float1 {
    animation: float1 5s infinite;
    }

    @keyframes float2 {
    0%{transform: translate(0, 0)}
    50%{transform: translate(-5px, -5px)}
    100%{transform: translate(0, 0)}
    }

    .triangle-float2 {
    animation: float2 4s infinite;
    }

    @keyframes float3 {
    0%{transform: translate(0, 0)}
    50%{transform: translate(0, -10px)}
    100%{transform: translate(0, 0)}
    }

    .triangle-float3 {
    animation: float3 6s infinite;
    }
</style></defs></svg>
