<svg width="762" height="628" viewBox="0 0 762 628" fill="none" xmlns="http://www.w3.org/2000/svg">
<path d="M385.87 5.05001C423.72 5.05001 461.68 3.11001 499.39 5.42001C609.05 12.14 690.53 65.27 733.74 165.88C778.46 270 758.65 367.21 680.87 450.18C632.46 501.82 581.6 551.17 531.42 601.14C522.27 610.25 513.99 627.57 500.36 622.95C490.25 619.52 491.41 608.24 491.7 599.69C492.02 590.33 492.2 580.97 492.25 571.6C492.29 563.56 492.97 554.95 490.01 547.3C485.29 535.13 472.74 530.89 460.7 529.69C421.33 525.79 384.54 512.24 351.37 490.46C331.21 477.22 309.12 481.11 287.43 480.35C275.23 479.92 262.93 480.83 250.83 479.62C219.71 476.51 202.61 458.44 202.91 430.22C203.2 403.4 218.58 387.14 248.65 382.61C257.06 381.34 265.71 381.74 274.2 380.88C304.21 377.85 316.83 364.8 316.95 337.06C317.08 308.11 302.88 292.32 272.07 290.91C239.17 289.4 206.11 291.23 173.22 289.58C141.35 287.98 126.37 273.4 124.29 246.1C121.9 214.8 136.09 197.25 167.58 195.32C191.92 193.83 216.44 195.38 240.79 194.07C266.81 192.67 284.96 180.77 287.63 152.4C290.3 124.06 277.96 107.89 248.22 100.53C212.18 91.61 197.74 75.61 200.4 47.52C203.1 18.94 220.81 5.36001 257.68 4.97001C300.41 4.53001 343.14 4.87 385.87 4.87C385.87 4.93 385.87 4.99001 385.87 5.05001ZM639.97 272.93C640.49 202.51 603.21 148.54 541.17 126.58C480.79 105.21 414.28 125.15 374.42 176.57C307.88 262.4 350.06 382.16 457.08 410.51C475.9 415.5 495.63 416.19 494.46 444.69C493.45 469.53 506.41 463.65 518.31 451.78C548.5 421.67 579.66 392.39 608.05 360.65C630.61 335.44 641.37 304.23 639.97 272.93Z" fill="#331B69" stroke="white" stroke-width="8"/>
<path d="M54.11 205.32C84.69 205.63 100.45 218.66 99.79 243.06C99.17 265.92 80.88 279.75 51.51 279.56C20.99 279.36 4.63998 266.29 4.72998 242.15C4.82998 216.81 20.69 204.98 54.11 205.32Z" fill="#58C7F3" stroke="white" stroke-width="8"/>
<path d="M142.84 400.83C169.49 401.1 183.22 412.45 182.65 433.72C182.11 453.64 166.17 465.69 140.58 465.53C113.98 465.36 99.74 453.97 99.82 432.93C99.89 410.84 113.71 400.53 142.84 400.83Z" fill="#F3CC30" stroke="white" stroke-width="8"/>
<path d="M121.87 4.94C160.39 5.33 180.25 21.74 179.42 52.48C178.64 81.28 155.6 98.7 118.6 98.46C80.15 98.21 59.56 81.75 59.67 51.34C59.79 19.42 79.78 4.51 121.87 4.94Z" fill="#E779C1" stroke="white" stroke-width="8"/>
</svg>
