<?xml version="1.0" standalone="no"?>
<!DOCTYPE svg PUBLIC "-//W3C//DTD SVG 20010904//EN"
 "http://www.w3.org/TR/2001/REC-SVG-20010904/DTD/svg10.dtd">
<svg version="1.0" xmlns="http://www.w3.org/2000/svg"
 width="754.000000pt" height="754.000000pt" viewBox="0 0 754.000000 754.000000"
 preserveAspectRatio="xMidYMid meet">
<metadata>
Created by potrace 1.14, written by Peter Selinger 2001-2017
</metadata>
<g transform="translate(0.000000,754.000000) scale(0.100000,-0.100000)"
fill="#000000" stroke="none">
<path d="M1148 6865 c-2 -2 -41 -6 -88 -9 -99 -7 -132 -12 -180 -28 -19 -7
-37 -13 -40 -13 -42 -11 -60 -19 -60 -28 0 -6 -3 -8 -6 -4 -4 3 -25 -7 -48
-22 -96 -67 -158 -176 -160 -283 -1 -16 -3 -28 -6 -28 -3 0 -5 -19 -4 -42 7
-173 39 -254 139 -349 30 -29 111 -77 142 -84 10 -3 43 -12 73 -20 153 -43
359 -38 520 12 117 37 217 115 268 210 82 154 72 364 -24 495 -28 38 -122 118
-138 118 -3 0 -17 5 -33 12 -15 6 -30 12 -33 13 -3 1 -12 5 -20 8 -8 4 -26 8
-40 11 -14 2 -32 7 -40 10 -8 3 -41 7 -72 10 -32 3 -62 7 -67 11 -5 3 -12 1
-15 -4 -4 -6 -18 -6 -35 -1 -16 4 -31 7 -33 5z"/>
<path d="M2586 6862 c-2 -1 -50 -4 -107 -6 -327 -12 -499 -159 -514 -441 -3
-46 -1 -106 5 -133 10 -56 41 -132 52 -132 5 0 8 -6 8 -13 0 -35 184 -168 250
-182 3 0 28 -9 56 -18 28 -10 59 -19 70 -21 10 -2 44 -12 74 -21 196 -63 306
-160 344 -305 21 -83 14 -248 -14 -330 -59 -167 -149 -237 -372 -286 -13 -3
-192 -7 -398 -9 -322 -4 -475 -9 -475 -15 0 -1 -11 -3 -25 -5 -39 -4 -136 -41
-172 -66 -49 -33 -87 -77 -118 -135 -32 -57 -40 -91 -45 -179 -2 -33 -5 -62
-6 -65 -1 -3 0 -9 1 -15 1 -5 4 -32 7 -60 17 -191 113 -318 280 -374 114 -38
149 -40 753 -46 261 -2 492 -6 514 -9 62 -8 170 -45 205 -71 67 -48 132 -139
147 -205 2 -11 7 -30 11 -42 13 -47 11 -230 -4 -286 -37 -143 -126 -228 -283
-268 -70 -18 -104 -22 -230 -29 -123 -6 -179 -13 -248 -31 -63 -17 -172 -65
-172 -76 0 -5 -5 -8 -12 -8 -29 0 -138 -144 -154 -205 -2 -5 -7 -23 -11 -40
-9 -35 -10 -218 -1 -255 15 -65 32 -111 45 -121 7 -6 13 -17 13 -24 0 -42 193
-185 248 -185 12 0 23 -4 26 -9 3 -5 27 -12 53 -16 27 -3 63 -9 81 -11 19 -3
190 -7 380 -9 206 -2 369 -8 402 -15 30 -6 67 -14 83 -17 15 -3 30 -9 33 -14
3 -5 12 -9 20 -9 8 0 62 -29 119 -65 58 -36 110 -65 114 -65 5 0 11 -3 13 -7
10 -24 398 -193 476 -208 12 -2 26 -6 31 -9 20 -13 321 -74 396 -80 150 -14
235 -48 289 -118 60 -80 61 -91 54 -603 -2 -131 14 -179 72 -207 69 -34 132
-9 212 84 29 34 319 328 643 653 494 495 678 682 955 974 14 14 54 60 90 101
36 41 68 77 71 80 35 31 249 339 249 359 0 6 4 11 9 11 5 0 13 10 17 23 4 12
10 24 14 27 15 10 149 298 184 395 34 97 73 228 82 283 3 15 9 44 15 65 5 20
12 56 15 80 4 40 11 96 20 162 5 39 4 349 -1 395 -2 19 -6 52 -9 74 -3 21 -8
57 -11 80 -3 22 -8 54 -11 69 -3 16 -7 38 -9 50 -3 18 -26 120 -40 177 -6 27
-73 235 -83 260 -6 14 -20 50 -32 80 -12 30 -27 68 -33 84 -15 37 -136 278
-164 327 -67 116 -219 331 -285 403 -85 94 -218 223 -288 281 -47 38 -87 72
-90 75 -3 3 -12 10 -22 15 -24 15 -141 94 -153 103 -11 9 -187 106 -195 108
-3 0 -39 17 -80 36 -70 33 -202 88 -225 93 -5 1 -17 5 -25 8 -38 14 -151 47
-215 62 -67 16 -79 19 -135 30 -58 12 -198 35 -240 40 -25 3 -65 7 -90 11
-109 13 -244 16 -695 15 -564 -1 -515 -2 -540 3 -11 2 -30 0 -41 -5 -12 -4
-25 -5 -28 -2 -6 6 -1195 11 -1200 5z m2499 -1146 c17 -3 46 -9 65 -13 253
-47 548 -188 702 -335 15 -14 28 -25 28 -23 0 7 61 -56 126 -130 96 -109 188
-264 241 -405 33 -86 36 -94 39 -105 21 -78 43 -168 43 -173 -1 -4 0 -9 1 -12
9 -25 20 -119 26 -243 3 -67 8 -125 11 -129 2 -5 1 -8 -4 -8 -4 0 -8 -28 -7
-62 0 -53 -8 -136 -19 -188 -14 -67 -21 -93 -39 -145 -11 -33 -29 -78 -39 -99
-11 -22 -19 -46 -19 -53 0 -7 -4 -13 -10 -13 -5 0 -10 -6 -10 -13 0 -33 -134
-217 -242 -332 -26 -27 -70 -75 -98 -105 -234 -250 -791 -792 -839 -817 -99
-52 -132 -16 -136 148 -2 48 -6 101 -10 120 -11 49 -49 104 -92 134 -35 23
-131 59 -188 69 -38 7 -178 46 -200 55 -11 5 -36 15 -55 22 -98 35 -300 141
-308 161 -2 4 -8 8 -14 8 -15 0 -132 94 -207 164 -57 55 -153 168 -191 226 -8
12 -22 32 -31 44 -15 20 -101 194 -132 266 -35 82 -76 260 -85 365 -23 284 23
530 144 780 16 33 32 62 37 63 4 2 7 8 7 14 0 6 30 56 67 112 67 101 245 292
328 352 22 16 42 31 45 35 15 16 166 103 242 139 79 37 183 75 231 85 10 2 28
7 40 11 12 4 31 8 42 10 11 2 31 6 45 9 14 3 52 8 85 11 33 3 61 7 63 9 6 5
285 -3 317 -9z"/>
<path d="M387 4854 c-1 -1 -23 -5 -48 -8 -215 -29 -332 -154 -331 -355 1 -67
3 -79 21 -140 46 -151 222 -240 466 -234 297 6 468 149 460 383 -4 89 -8 108
-35 165 -36 75 -144 153 -232 169 -15 2 -32 8 -38 11 -10 6 -257 15 -263 9z"/>
<path d="M1268 2897 c-134 -23 -213 -63 -259 -132 -24 -35 -48 -112 -49 -157
0 -10 -1 -24 -1 -30 -3 -32 15 -116 31 -148 57 -112 199 -177 380 -174 150 3
245 33 323 104 63 58 90 124 90 225 1 143 -59 232 -187 280 -88 33 -239 48
-328 32z"/>
</g>
</svg>
